<svg xmlns="http://www.w3.org/2000/svg" viewBox="0 0 500 500" enable-background="new 0 0 500 500"><g><path fill="#ECC561" d="M1.3 0h500v500H1.3z"/><path fill="#fff" d="M446 165.2v172.1l-41.7 5.4V233.6l-40.8 76.9h-.9l-43-77.2v119l-49.1 4.4V141.5l52.6 7.4 40.3 76.6 38.3-65.9zM445 115.7L254 77.2v27.2l191 32.4z"/><path d="M59.9 164.9v170.8l41.7 7.1V234.7l40.8 76.9h.9l43-77.2v116.2l49.2 7.3V141.2l-52.7 7.4-40.3 78.1-38.3-68.8zM59 115.7l195-38.5v28.6L59 138.1z" opacity=".25"/><path fill="#fff" d="M445 380.6L254 419v-28.5l191-31z"/><path opacity=".25" d="M59 380.6L254 419v-28.5L59 358.1z"/></g></svg>